# Blender v2.77 (sub 0) OBJ File: ''
# www.blender.org
mtllib ocean.mtl
o Icosphere_Icosphere.002
v 0.000000 -2.657728 0.000000
v 36.180367 2.870077 26.286264
v -13.819400 2.870074 42.532459
v -44.721310 2.870116 0.000000
v -13.819400 2.870074 -42.532459
v 36.180367 2.870077 -26.286264
v -12.896826 1.835420 39.693024
v -11.641075 0.767080 35.828156
v -10.034423 -0.261758 30.883307
v -8.122777 -1.164272 24.999765
v -6.020632 -1.867275 18.529917
v -3.880332 -2.337224 11.942636
v -1.842387 -2.586379 5.670380
v 4.823529 -2.586378 3.504457
v 10.159047 -2.337224 7.380892
v 15.762538 -1.867275 11.452020
v 21.266134 -1.164270 15.450568
v 26.270988 -0.261756 19.086765
v 30.477333 0.767085 22.142817
v 33.764996 1.835422 24.531416
v 31.922630 2.572398 30.201880
v 26.597046 2.319255 34.085621
v 20.250423 2.146548 37.616909
v 13.143441 2.084895 40.450584
v 5.728197 2.146547 42.335548
v -1.481963 2.319254 43.209206
v -8.073262 2.572395 43.197563
v 38.588566 2.572403 -21.026928
v 40.636463 2.319266 -14.761886
v 42.033634 2.146564 -7.634715
v 42.532394 2.084914 0.000001
v 42.033634 2.146564 7.634716
v 40.636463 2.319266 14.761886
v 38.588566 2.572403 21.026928
v 4.823529 -2.586378 -3.504457
v 10.159047 -2.337224 -7.380892
v 15.762538 -1.867275 -11.452020
v 21.266134 -1.164270 -15.450568
v 26.270988 -0.261756 -19.086765
v 30.477333 0.767085 -22.142817
v 33.764996 1.835422 -24.531416
v -41.735798 1.835464 0.000000
v -37.672077 0.767125 0.000000
v -32.472797 -0.261720 0.000000
v -26.286489 -1.164244 0.000000
v -19.483669 -1.867259 0.000000
v -12.557347 -2.337217 0.000000
v -5.962249 -2.586377 0.000000
v -18.859152 2.572396 39.693062
v -24.198570 2.319255 35.828228
v -29.518280 2.146555 30.883390
v -34.409462 2.084911 24.999846
v -38.493599 2.146572 18.529978
v -41.552532 2.319286 11.942671
v -43.578236 2.572434 5.670392
v -12.896826 1.835420 -39.693024
v -11.641075 0.767080 -35.828156
v -10.034423 -0.261758 -30.883307
v -8.122777 -1.164272 -24.999765
v -6.020632 -1.867275 -18.529917
v -3.880332 -2.337224 -11.942636
v -1.842387 -2.586379 -5.670380
v -43.578236 2.572434 -5.670392
v -41.552528 2.319286 -11.942672
v -38.493599 2.146571 -18.529978
v -34.409462 2.084910 -24.999847
v -29.518282 2.146555 -30.883396
v -24.198568 2.319256 -35.828228
v -18.859152 2.572396 -39.693062
v -8.073261 2.572395 -43.197563
v -1.481962 2.319254 -43.209206
v 5.728198 2.146547 -42.335548
v 13.143442 2.084895 -40.450584
v 20.250425 2.146548 -37.616909
v 26.597046 2.319255 -34.085621
v 31.922630 2.572398 -30.201876
v 28.853306 1.478931 -28.425650
v 24.850462 0.376663 -25.873959
v 22.795115 1.198830 -32.199932
v 19.963619 -0.643243 -22.522045
v 18.090174 0.106156 -29.388958
v 15.748529 1.042837 -35.495239
v 14.445789 -1.486277 -18.513155
v 12.668292 -0.856855 -25.668503
v 10.504361 0.008735 -32.328613
v 8.123134 1.042840 -37.972927
v 8.706902 -2.089813 -14.145112
v 6.909842 -1.602019 -21.266066
v 4.838933 -0.856851 -28.212484
v 2.639457 0.106162 -34.409313
v 0.485413 1.198834 -39.448936
v 3.174116 -2.444442 -9.768847
v 1.270369 -2.089809 -16.561470
v -0.804944 -1.486269 -23.468569
v -2.912514 -0.643232 -29.955145
v -4.895771 0.376675 -35.539314
v -6.634223 1.478938 -39.956470
v -18.118328 1.478929 -36.225079
v -16.928465 0.376662 -31.629631
v -23.580027 1.198831 -31.629662
v -15.250712 -0.643245 -25.946163
v -22.360527 0.106158 -26.286358
v -28.891602 1.042846 -25.946209
v -13.143124 -1.486279 -19.459587
v -20.497595 -0.856853 -19.980162
v -27.500483 0.008743 -19.980175
v -33.604416 1.042855 -19.459625
v -10.762262 -2.089813 -12.651783
v -18.090061 -1.602017 -13.143129
v -25.336489 -0.856844 -13.320090
v -31.909740 0.106177 -13.143143
v -37.368351 1.198858 -12.651807
v -8.309897 -2.444443 -6.037463
v -15.358389 -2.089807 -6.325887
v -22.568777 -1.486263 -6.486517
v -29.389185 -0.643218 -6.486519
v -35.312920 0.376698 -6.325893
v -40.051098 1.478969 -6.037471
v -40.051098 1.478968 6.037481
v -35.312908 0.376697 6.325914
v -37.368347 1.198858 12.651831
v -29.389174 -0.643218 6.486551
v -31.909725 0.106179 13.143187
v -33.604408 1.042857 19.459654
v -22.568768 -1.486263 6.486560
v -25.336479 -0.856841 13.320157
v -27.500469 0.008749 19.980234
v -28.891594 1.042850 25.946241
v -15.358389 -2.089806 6.325941
v -18.090067 -1.602012 13.143219
v -20.497599 -0.856844 19.980255
v -22.360525 0.106168 26.286434
v -23.580023 1.198838 31.629700
v -8.309905 -2.444441 6.037519
v -10.762281 -2.089808 12.651881
v -13.143143 -1.486268 19.459702
v -15.250732 -0.643230 25.946268
v -16.928476 0.376675 31.629705
v -18.118330 1.478938 36.225109
v 35.950771 1.478938 -18.656752
v 37.668179 1.198840 -11.728800
v 32.286991 0.376669 -15.638391
v 38.624626 1.042852 -4.008861
v 33.540852 0.106166 -8.122840
v 27.588982 -0.643238 -12.026585
v 38.624634 1.042854 4.008885
v 33.992432 0.008747 0.000023
v 28.327003 -0.856847 -4.116078
v 22.071163 -1.486274 -8.017703
v 37.668190 1.198846 11.728822
v 33.540878 0.106172 8.122887
v 28.327026 -0.856842 4.116143
v 22.360552 -1.602013 0.000037
v 16.143456 -2.089810 -3.909560
v 35.950790 1.478945 18.656775
v 32.287041 0.376682 15.638438
v 27.589045 -0.643226 12.026650
v 22.071226 -1.486264 8.017777
v 16.143494 -2.089806 3.909631
v 10.271619 -2.444440 0.000028
v -6.634203 1.478928 39.956440
v -4.895729 0.376660 35.539253
v 0.485444 1.198827 39.448910
v -2.912452 -0.643245 29.955057
v 2.639518 0.106154 34.409271
v 8.123174 1.042837 37.972912
v -0.804873 -1.486279 23.468477
v 4.839016 -0.856856 28.212431
v 10.504436 0.008736 32.328587
v 15.748570 1.042839 35.495232
v 1.270440 -2.089813 16.561401
v 6.909935 -1.602020 21.266031
v 12.668387 -0.856851 25.668489
v 18.090250 0.106162 29.388958
v 22.795153 1.198835 32.199932
v 3.174177 -2.444442 9.768825
v 8.706994 -2.089809 14.145120
v 14.445898 -1.486269 18.513182
v 19.963715 -0.643230 22.522076
v 24.850534 0.376676 25.873983
v 28.853336 1.478940 28.425657
vn 0.004600 -0.999900 0.014100
vn 0.274500 -0.944700 0.179200
vn -0.012000 -0.999900 0.008700
vn -0.012000 -0.999900 -0.008700
vn 0.004600 -0.999900 -0.014100
vn 0.255200 -0.944700 -0.205700
vn 0.197500 -0.967000 -0.160600
vn 0.150100 -0.980900 -0.123700
vn 0.110700 -0.989500 -0.093300
vn 0.077600 -0.994700 -0.068100
vn 0.049400 -0.997700 -0.047100
vn 0.025400 -0.999200 -0.029300
vn 0.225700 -0.954000 -0.197300
vn 0.209100 -0.951700 -0.224600
vn 0.169800 -0.973400 -0.154200
vn 0.155000 -0.972000 -0.176700
vn 0.177300 -0.960800 -0.213300
vn 0.161300 -0.956500 -0.243100
vn 0.124200 -0.985100 -0.118700
vn 0.111000 -0.984200 -0.137700
vn 0.126600 -0.977600 -0.168200
vn 0.111500 -0.975000 -0.192300
vn 0.128500 -0.964900 -0.229200
vn 0.112200 -0.958900 -0.260700
vn 0.086900 -0.992200 -0.089100
vn 0.074700 -0.991600 -0.105800
vn 0.085500 -0.987700 -0.131100
vn 0.071300 -0.985900 -0.151300
vn 0.083200 -0.979700 -0.182200
vn 0.067300 -0.976000 -0.207200
vn 0.079600 -0.966200 -0.245000
vn 0.062400 -0.958900 -0.276800
vn 0.055900 -0.996400 -0.064200
vn 0.044300 -0.995900 -0.079400
vn 0.051900 -0.993600 -0.100300
vn 0.038300 -0.992300 -0.117900
vn 0.046700 -0.988500 -0.143600
vn 0.031300 -0.985900 -0.164300
vn 0.039800 -0.979700 -0.196300
vn 0.022800 -0.975000 -0.221100
vn 0.030700 -0.964900 -0.261000
vn 0.012400 -0.956500 -0.291500
vn 0.030000 -0.998600 -0.043000
vn 0.018600 -0.998200 -0.057300
vn 0.024200 -0.996900 -0.074400
vn 0.010800 -0.995900 -0.090300
vn 0.017000 -0.993600 -0.111600
vn 0.001800 -0.991600 -0.129400
vn 0.007900 -0.987700 -0.156300
vn -0.008800 -0.984200 -0.176600
vn -0.003500 -0.977600 -0.210400
vn -0.021600 -0.972000 -0.234100
vn -0.018100 -0.960800 -0.276800
vn -0.037100 -0.951700 -0.304600
vn 0.008000 -0.999700 -0.024800
vn -0.003300 -0.999200 -0.038600
vn 0.001000 -0.998600 -0.052400
vn -0.012300 -0.997700 -0.067200
vn -0.007500 -0.996400 -0.084800
vn -0.022700 -0.994700 -0.100700
vn -0.017900 -0.992200 -0.123100
vn -0.034700 -0.989500 -0.140500
vn -0.030700 -0.985100 -0.169000
vn -0.048700 -0.980900 -0.188300
vn -0.046700 -0.973400 -0.224500
vn -0.065400 -0.967000 -0.246100
vn -0.066600 -0.954000 -0.292300
vn -0.085600 -0.944700 -0.316400
vn -0.116800 -0.944700 -0.306300
vn -0.091700 -0.967000 -0.237500
vn -0.071200 -0.980900 -0.180900
vn -0.054500 -0.989500 -0.134100
vn -0.040800 -0.994700 -0.094800
vn -0.029500 -0.997700 -0.061600
vn -0.020000 -0.999200 -0.033200
vn -0.117900 -0.954000 -0.275600
vn -0.149000 -0.951700 -0.268300
vn -0.094200 -0.973400 -0.209100
vn -0.120100 -0.972000 -0.202000
vn -0.148100 -0.960800 -0.234600
vn -0.181400 -0.956500 -0.228500
vn -0.074500 -0.985100 -0.154800
vn -0.096700 -0.984200 -0.148100
vn -0.120800 -0.977600 -0.172300
vn -0.148500 -0.975000 -0.165500
vn -0.178300 -0.964900 -0.193100
vn -0.213200 -0.958900 -0.187300
vn -0.057900 -0.992200 -0.110100
vn -0.077500 -0.991600 -0.103700
vn -0.098300 -0.987700 -0.121800
vn -0.121900 -0.985900 -0.114600
vn -0.147600 -0.979700 -0.135400
vn -0.176300 -0.976000 -0.128100
vn -0.208500 -0.966200 -0.151400
vn -0.244000 -0.958900 -0.144900
vn -0.043800 -0.996400 -0.073000
vn -0.061800 -0.995900 -0.066700
vn -0.079300 -0.993600 -0.080400
vn -0.100300 -0.992300 -0.072800
vn -0.122200 -0.988500 -0.088800
vn -0.146600 -0.985900 -0.080500
vn -0.174400 -0.979700 -0.098500
vn -0.203300 -0.975000 -0.090000
vn -0.238700 -0.964900 -0.109900
vn -0.273400 -0.956500 -0.101900
vn -0.031600 -0.998600 -0.041800
vn -0.048800 -0.998200 -0.035400
vn -0.063300 -0.996900 -0.046000
vn -0.082500 -0.995900 -0.038200
vn -0.100900 -0.993600 -0.050600
vn -0.122600 -0.991600 -0.041700
vn -0.146200 -0.987700 -0.055800
vn -0.170700 -0.984200 -0.046200
vn -0.201200 -0.977600 -0.061700
vn -0.229300 -0.972000 -0.051800
vn -0.268900 -0.960800 -0.068400
vn -0.301200 -0.951700 -0.058900
vn -0.021100 -0.999700 -0.015300
vn -0.037800 -0.999200 -0.008800
vn -0.049500 -0.998600 -0.017100
vn -0.067700 -0.997700 -0.009000
vn -0.083000 -0.996400 -0.019100
vn -0.102800 -0.994700 -0.009500
vn -0.122600 -0.992200 -0.021000
vn -0.144400 -0.989500 -0.010400
vn -0.170200 -0.985100 -0.023000
vn -0.194100 -0.980900 -0.011800
vn -0.228000 -0.973400 -0.024900
vn -0.254200 -0.967000 -0.013800
vn -0.298600 -0.954000 -0.027000
vn -0.327400 -0.944700 -0.016400
vn -0.327400 -0.944700 0.016400
vn -0.254200 -0.967000 0.013800
vn -0.194100 -0.980900 0.011800
vn -0.144400 -0.989500 0.010400
vn -0.102800 -0.994700 0.009500
vn -0.067700 -0.997700 0.009000
vn -0.037800 -0.999200 0.008800
vn -0.298600 -0.954000 0.027000
vn -0.301200 -0.951700 0.058900
vn -0.228000 -0.973400 0.024900
vn -0.229300 -0.972000 0.051800
vn -0.268900 -0.960800 0.068400
vn -0.273400 -0.956500 0.101900
vn -0.170200 -0.985100 0.023000
vn -0.170700 -0.984200 0.046200
vn -0.201200 -0.977600 0.061700
vn -0.203300 -0.975000 0.090000
vn -0.238700 -0.964900 0.109900
vn -0.244000 -0.958900 0.144900
vn -0.122600 -0.992200 0.021000
vn -0.122600 -0.991600 0.041700
vn -0.146200 -0.987700 0.055800
vn -0.146600 -0.985900 0.080500
vn -0.174400 -0.979700 0.098500
vn -0.176300 -0.976000 0.128100
vn -0.208500 -0.966200 0.151400
vn -0.213200 -0.958900 0.187300
vn -0.083000 -0.996400 0.019100
vn -0.082500 -0.995900 0.038200
vn -0.100900 -0.993600 0.050600
vn -0.100300 -0.992300 0.072800
vn -0.122200 -0.988500 0.088800
vn -0.121900 -0.985900 0.114600
vn -0.147600 -0.979700 0.135400
vn -0.148500 -0.975000 0.165500
vn -0.178300 -0.964900 0.193100
vn -0.181400 -0.956500 0.228500
vn -0.049500 -0.998600 0.017100
vn -0.048800 -0.998200 0.035400
vn -0.063300 -0.996900 0.046000
vn -0.061800 -0.995900 0.066700
vn -0.079300 -0.993600 0.080400
vn -0.077500 -0.991600 0.103700
vn -0.098300 -0.987700 0.121800
vn -0.096700 -0.984200 0.148100
vn -0.120800 -0.977600 0.172300
vn -0.120100 -0.972000 0.202000
vn -0.148100 -0.960800 0.234600
vn -0.149000 -0.951700 0.268300
vn -0.021100 -0.999700 0.015300
vn -0.020000 -0.999200 0.033200
vn -0.031600 -0.998600 0.041800
vn -0.029500 -0.997700 0.061600
vn -0.043800 -0.996400 0.073000
vn -0.040800 -0.994700 0.094800
vn -0.057900 -0.992200 0.110100
vn -0.054500 -0.989500 0.134100
vn -0.074500 -0.985100 0.154800
vn -0.071200 -0.980900 0.180900
vn -0.094200 -0.973400 0.209100
vn -0.091700 -0.967000 0.237500
vn -0.117900 -0.954000 0.275600
vn -0.116800 -0.944700 0.306300
vn 0.274500 -0.944700 -0.179200
vn 0.278300 -0.951700 -0.129400
vn 0.281100 -0.956500 -0.078300
vn 0.282600 -0.958900 -0.026200
vn 0.282600 -0.958900 0.026200
vn 0.281100 -0.956500 0.078300
vn 0.278300 -0.951700 0.129400
vn 0.257400 -0.954000 -0.153700
vn 0.213800 -0.967000 -0.138200
vn 0.257700 -0.960800 -0.102700
vn 0.215900 -0.972000 -0.092800
vn 0.199100 -0.973400 -0.113800
vn 0.164000 -0.980900 -0.104500
vn 0.257700 -0.964900 -0.051400
vn 0.217400 -0.975000 -0.046600
vn 0.199100 -0.977600 -0.068400
vn 0.165200 -0.984200 -0.063000
vn 0.151200 -0.985100 -0.081500
vn 0.122900 -0.989500 -0.076400
vn 0.257700 -0.966200 -0.000000
vn 0.217900 -0.976000 0.000000
vn 0.199000 -0.979700 -0.022800
vn 0.165900 -0.985900 -0.021000
vn 0.151100 -0.987700 -0.040800
vn 0.123700 -0.991600 -0.038300
vn 0.111600 -0.992200 -0.055100
vn 0.088800 -0.994700 -0.052700
vn 0.257700 -0.964900 0.051400
vn 0.217400 -0.975000 0.046600
vn 0.199000 -0.979700 0.022800
vn 0.165900 -0.985900 0.021000
vn 0.151000 -0.988500 0.000000
vn 0.123900 -0.992300 0.000000
vn 0.111400 -0.993600 -0.018400
vn 0.089200 -0.995900 -0.017600
vn 0.078300 -0.996400 -0.033400
vn 0.060100 -0.997700 -0.032500
vn 0.257700 -0.960800 0.102700
vn 0.215900 -0.972000 0.092800
vn 0.199100 -0.977600 0.068400
vn 0.165200 -0.984200 0.063000
vn 0.151100 -0.987700 0.040800
vn 0.123700 -0.991600 0.038300
vn 0.111400 -0.993600 0.018400
vn 0.089200 -0.995900 0.017600
vn 0.078200 -0.996900 0.000000
vn 0.060300 -0.998200 0.000000
vn 0.050100 -0.998600 -0.015300
vn 0.035700 -0.999200 -0.015100
vn 0.257400 -0.954000 0.153700
vn 0.213800 -0.967000 0.138200
vn 0.199100 -0.973400 0.113800
vn 0.164000 -0.980900 0.104500
vn 0.151200 -0.985100 0.081500
vn 0.122900 -0.989500 0.076400
vn 0.111600 -0.992200 0.055100
vn 0.088800 -0.994700 0.052700
vn 0.078300 -0.996400 0.033400
vn 0.060100 -0.997700 0.032500
vn 0.050100 -0.998600 0.015300
vn 0.035700 -0.999200 0.015100
vn 0.026000 -0.999700 0.000000
vn 0.014800 -0.999900 0.000000
vn -0.085600 -0.944700 0.316400
vn -0.065400 -0.967000 0.246100
vn -0.048700 -0.980900 0.188300
vn -0.034700 -0.989500 0.140500
vn -0.022700 -0.994700 0.100700
vn -0.012300 -0.997700 0.067200
vn -0.003300 -0.999200 0.038600
vn -0.066600 -0.954000 0.292300
vn -0.037100 -0.951700 0.304600
vn -0.046700 -0.973400 0.224500
vn -0.021600 -0.972000 0.234100
vn -0.018100 -0.960800 0.276800
vn 0.012400 -0.956500 0.291500
vn -0.030700 -0.985100 0.169000
vn -0.008800 -0.984200 0.176600
vn -0.003500 -0.977600 0.210400
vn 0.022800 -0.975000 0.221100
vn 0.030700 -0.964900 0.261000
vn 0.062400 -0.958900 0.276800
vn -0.017900 -0.992200 0.123100
vn 0.001800 -0.991600 0.129400
vn 0.007900 -0.987700 0.156300
vn 0.031300 -0.985900 0.164300
vn 0.039800 -0.979700 0.196300
vn 0.067300 -0.976000 0.207200
vn 0.079600 -0.966200 0.245000
vn 0.112200 -0.958900 0.260700
vn -0.007500 -0.996400 0.084800
vn 0.010800 -0.995900 0.090300
vn 0.017000 -0.993600 0.111600
vn 0.038300 -0.992300 0.117900
vn 0.046700 -0.988500 0.143600
vn 0.071300 -0.985900 0.151300
vn 0.083200 -0.979700 0.182200
vn 0.111500 -0.975000 0.192300
vn 0.128500 -0.964900 0.229200
vn 0.161300 -0.956500 0.243100
vn 0.001000 -0.998600 0.052400
vn 0.018600 -0.998200 0.057300
vn 0.024200 -0.996900 0.074400
vn 0.044300 -0.995900 0.079400
vn 0.051900 -0.993600 0.100300
vn 0.074700 -0.991600 0.105800
vn 0.085500 -0.987700 0.131100
vn 0.111000 -0.984200 0.137700
vn 0.126600 -0.977600 0.168200
vn 0.155000 -0.972000 0.176700
vn 0.177300 -0.960800 0.213300
vn 0.209100 -0.951700 0.224600
vn 0.008000 -0.999700 0.024800
vn 0.025400 -0.999200 0.029300
vn 0.030000 -0.998600 0.043000
vn 0.049400 -0.997700 0.047100
vn 0.055900 -0.996400 0.064200
vn 0.077600 -0.994700 0.068100
vn 0.086900 -0.992200 0.089100
vn 0.110700 -0.989500 0.093300
vn 0.124200 -0.985100 0.118700
vn 0.150100 -0.980900 0.123700
vn 0.169800 -0.973400 0.154200
vn 0.197500 -0.967000 0.160600
vn 0.225700 -0.954000 0.197300
vn 0.255200 -0.944700 0.205700
usemtl None
s off
f 1//1 14//1 13//1
f 2//2 20//2 34//2
f 1//3 13//3 48//3
f 1//4 48//4 62//4
f 1//5 62//5 35//5
f 41//6 76//6 6//6
f 40//7 77//7 41//7
f 39//8 78//8 40//8
f 38//9 80//9 39//9
f 37//10 83//10 38//10
f 36//11 87//11 37//11
f 35//12 92//12 36//12
f 41//13 77//13 76//13
f 77//14 75//14 76//14
f 40//15 78//15 77//15
f 78//16 79//16 77//16
f 77//17 79//17 75//17
f 79//18 74//18 75//18
f 39//19 80//19 78//19
f 80//20 81//20 78//20
f 78//21 81//21 79//21
f 81//22 82//22 79//22
f 79//23 82//23 74//23
f 82//24 73//24 74//24
f 38//25 83//25 80//25
f 83//26 84//26 80//26
f 80//27 84//27 81//27
f 84//28 85//28 81//28
f 81//29 85//29 82//29
f 85//30 86//30 82//30
f 82//31 86//31 73//31
f 86//32 72//32 73//32
f 37//33 87//33 83//33
f 87//34 88//34 83//34
f 83//35 88//35 84//35
f 88//36 89//36 84//36
f 84//37 89//37 85//37
f 89//38 90//38 85//38
f 85//39 90//39 86//39
f 90//40 91//40 86//40
f 86//41 91//41 72//41
f 91//42 71//42 72//42
f 36//43 92//43 87//43
f 92//44 93//44 87//44
f 87//45 93//45 88//45
f 93//46 94//46 88//46
f 88//47 94//47 89//47
f 94//48 95//48 89//48
f 89//49 95//49 90//49
f 95//50 96//50 90//50
f 90//51 96//51 91//51
f 96//52 97//52 91//52
f 91//53 97//53 71//53
f 97//54 70//54 71//54
f 35//55 62//55 92//55
f 62//56 61//56 92//56
f 92//57 61//57 93//57
f 61//58 60//58 93//58
f 93//59 60//59 94//59
f 60//60 59//60 94//60
f 94//61 59//61 95//61
f 59//62 58//62 95//62
f 95//63 58//63 96//63
f 58//64 57//64 96//64
f 96//65 57//65 97//65
f 57//66 56//66 97//66
f 97//67 56//67 70//67
f 56//68 5//68 70//68
f 56//69 69//69 5//69
f 57//70 98//70 56//70
f 58//71 99//71 57//71
f 59//72 101//72 58//72
f 60//73 104//73 59//73
f 61//74 108//74 60//74
f 62//75 113//75 61//75
f 56//76 98//76 69//76
f 98//77 68//77 69//77
f 57//78 99//78 98//78
f 99//79 100//79 98//79
f 98//80 100//80 68//80
f 100//81 67//81 68//81
f 58//82 101//82 99//82
f 101//83 102//83 99//83
f 99//84 102//84 100//84
f 102//85 103//85 100//85
f 100//86 103//86 67//86
f 103//87 66//87 67//87
f 59//88 104//88 101//88
f 104//89 105//89 101//89
f 101//90 105//90 102//90
f 105//91 106//91 102//91
f 102//92 106//92 103//92
f 106//93 107//93 103//93
f 103//94 107//94 66//94
f 107//95 65//95 66//95
f 60//96 108//96 104//96
f 108//97 109//97 104//97
f 104//98 109//98 105//98
f 109//99 110//99 105//99
f 105//100 110//100 106//100
f 110//101 111//101 106//101
f 106//102 111//102 107//102
f 111//103 112//103 107//103
f 107//104 112//104 65//104
f 112//105 64//105 65//105
f 61//106 113//106 108//106
f 113//107 114//107 108//107
f 108//108 114//108 109//108
f 114//109 115//109 109//109
f 109//110 115//110 110//110
f 115//111 116//111 110//111
f 110//112 116//112 111//112
f 116//113 117//113 111//113
f 111//114 117//114 112//114
f 117//115 118//115 112//115
f 112//116 118//116 64//116
f 118//117 63//117 64//117
f 62//118 48//118 113//118
f 48//119 47//119 113//119
f 113//120 47//120 114//120
f 47//121 46//121 114//121
f 114//122 46//122 115//122
f 46//123 45//123 115//123
f 115//124 45//124 116//124
f 45//125 44//125 116//125
f 116//126 44//126 117//126
f 44//127 43//127 117//127
f 117//128 43//128 118//128
f 43//129 42//129 118//129
f 118//130 42//130 63//130
f 42//131 4//131 63//131
f 42//132 55//132 4//132
f 43//133 119//133 42//133
f 44//134 120//134 43//134
f 45//135 122//135 44//135
f 46//136 125//136 45//136
f 47//137 129//137 46//137
f 48//138 134//138 47//138
f 42//139 119//139 55//139
f 119//140 54//140 55//140
f 43//141 120//141 119//141
f 120//142 121//142 119//142
f 119//143 121//143 54//143
f 121//144 53//144 54//144
f 44//145 122//145 120//145
f 122//146 123//146 120//146
f 120//147 123//147 121//147
f 123//148 124//148 121//148
f 121//149 124//149 53//149
f 124//150 52//150 53//150
f 45//151 125//151 122//151
f 125//152 126//152 122//152
f 122//153 126//153 123//153
f 126//154 127//154 123//154
f 123//155 127//155 124//155
f 127//156 128//156 124//156
f 124//157 128//157 52//157
f 128//158 51//158 52//158
f 46//159 129//159 125//159
f 129//160 130//160 125//160
f 125//161 130//161 126//161
f 130//162 131//162 126//162
f 126//163 131//163 127//163
f 131//164 132//164 127//164
f 127//165 132//165 128//165
f 132//166 133//166 128//166
f 128//167 133//167 51//167
f 133//168 50//168 51//168
f 47//169 134//169 129//169
f 134//170 135//170 129//170
f 129//171 135//171 130//171
f 135//172 136//172 130//172
f 130//173 136//173 131//173
f 136//174 137//174 131//174
f 131//175 137//175 132//175
f 137//176 138//176 132//176
f 132//177 138//177 133//177
f 138//178 139//178 133//178
f 133//179 139//179 50//179
f 139//180 49//180 50//180
f 48//181 13//181 134//181
f 13//182 12//182 134//182
f 134//183 12//183 135//183
f 12//184 11//184 135//184
f 135//185 11//185 136//185
f 11//186 10//186 136//186
f 136//187 10//187 137//187
f 10//188 9//188 137//188
f 137//189 9//189 138//189
f 9//190 8//190 138//190
f 138//191 8//191 139//191
f 8//192 7//192 139//192
f 139//193 7//193 49//193
f 7//194 3//194 49//194
f 28//195 41//195 6//195
f 29//196 140//196 28//196
f 30//197 141//197 29//197
f 31//198 143//198 30//198
f 32//199 146//199 31//199
f 33//200 150//200 32//200
f 34//201 155//201 33//201
f 28//202 140//202 41//202
f 140//203 40//203 41//203
f 29//204 141//204 140//204
f 141//205 142//205 140//205
f 140//206 142//206 40//206
f 142//207 39//207 40//207
f 30//208 143//208 141//208
f 143//209 144//209 141//209
f 141//210 144//210 142//210
f 144//211 145//211 142//211
f 142//212 145//212 39//212
f 145//213 38//213 39//213
f 31//214 146//214 143//214
f 146//215 147//215 143//215
f 143//216 147//216 144//216
f 147//217 148//217 144//217
f 144//218 148//218 145//218
f 148//219 149//219 145//219
f 145//220 149//220 38//220
f 149//221 37//221 38//221
f 32//222 150//222 146//222
f 150//223 151//223 146//223
f 146//224 151//224 147//224
f 151//225 152//225 147//225
f 147//226 152//226 148//226
f 152//227 153//227 148//227
f 148//228 153//228 149//228
f 153//229 154//229 149//229
f 149//230 154//230 37//230
f 154//231 36//231 37//231
f 33//232 155//232 150//232
f 155//233 156//233 150//233
f 150//234 156//234 151//234
f 156//235 157//235 151//235
f 151//236 157//236 152//236
f 157//237 158//237 152//237
f 152//238 158//238 153//238
f 158//239 159//239 153//239
f 153//240 159//240 154//240
f 159//241 160//241 154//241
f 154//242 160//242 36//242
f 160//243 35//243 36//243
f 34//244 20//244 155//244
f 20//245 19//245 155//245
f 155//246 19//246 156//246
f 19//247 18//247 156//247
f 156//248 18//248 157//248
f 18//249 17//249 157//249
f 157//250 17//250 158//250
f 17//251 16//251 158//251
f 158//252 16//252 159//252
f 16//253 15//253 159//253
f 159//254 15//254 160//254
f 15//255 14//255 160//255
f 160//256 14//256 35//256
f 14//257 1//257 35//257
f 7//258 27//258 3//258
f 8//259 161//259 7//259
f 9//260 162//260 8//260
f 10//261 164//261 9//261
f 11//262 167//262 10//262
f 12//263 171//263 11//263
f 13//264 176//264 12//264
f 7//265 161//265 27//265
f 161//266 26//266 27//266
f 8//267 162//267 161//267
f 162//268 163//268 161//268
f 161//269 163//269 26//269
f 163//270 25//270 26//270
f 9//271 164//271 162//271
f 164//272 165//272 162//272
f 162//273 165//273 163//273
f 165//274 166//274 163//274
f 163//275 166//275 25//275
f 166//276 24//276 25//276
f 10//277 167//277 164//277
f 167//278 168//278 164//278
f 164//279 168//279 165//279
f 168//280 169//280 165//280
f 165//281 169//281 166//281
f 169//282 170//282 166//282
f 166//283 170//283 24//283
f 170//284 23//284 24//284
f 11//285 171//285 167//285
f 171//286 172//286 167//286
f 167//287 172//287 168//287
f 172//288 173//288 168//288
f 168//289 173//289 169//289
f 173//290 174//290 169//290
f 169//291 174//291 170//291
f 174//292 175//292 170//292
f 170//293 175//293 23//293
f 175//294 22//294 23//294
f 12//295 176//295 171//295
f 176//296 177//296 171//296
f 171//297 177//297 172//297
f 177//298 178//298 172//298
f 172//299 178//299 173//299
f 178//300 179//300 173//300
f 173//301 179//301 174//301
f 179//302 180//302 174//302
f 174//303 180//303 175//303
f 180//304 181//304 175//304
f 175//305 181//305 22//305
f 181//306 21//306 22//306
f 13//307 14//307 176//307
f 14//308 15//308 176//308
f 176//309 15//309 177//309
f 15//310 16//310 177//310
f 177//311 16//311 178//311
f 16//312 17//312 178//312
f 178//313 17//313 179//313
f 17//314 18//314 179//314
f 179//315 18//315 180//315
f 18//316 19//316 180//316
f 180//317 19//317 181//317
f 19//318 20//318 181//318
f 181//319 20//319 21//319
f 20//320 2//320 21//320
